<?xml version="1.0" encoding="utf-8"?>
<!-- Generator: $$$/GeneralStr/196=Adobe Illustrator 27.6.0, SVG Export Plug-In . SVG Version: 6.00 Build 0)  -->
<svg version="1.1" xmlns="http://www.w3.org/2000/svg" xmlns:xlink="http://www.w3.org/1999/xlink" x="0px" y="0px"
	 viewBox="0 0 100 100" style="enable-background:new 0 0 100 100;" xml:space="preserve">
<style type="text/css">
	.st0{fill-rule:evenodd;clip-rule:evenodd;fill:#FFFFFF;}
	.st1{fill-rule:evenodd;clip-rule:evenodd;fill:#5BC2E7;}
</style>
<g id="图层_2">
	<rect x="0" class="st0" width="100" height="100"/>
</g>
<g id="Слой_1">
	<path marker-start="none" marker-end="none" class="st1" d="M40.5,75H0l0-4h40.5c0.5,0,1,0,1.6-0.1c4-0.8,6.9-3.9,6.9-6.4h0v0
		c0-1.1-0.5-2-1.5-2.6c-1-0.6-2.6-1-4.6-0.6c-4.1,0.8-6.9,3.9-6.9,6.5c0,0.5,0.1,1,0.3,1.4h-4.2C32,68.5,32,68.1,32,67.6
		c0-5,4.8-9.4,10.1-10.4c2.7-0.5,5.4-0.1,7.4,1.1c2.1,1.3,3.4,3.4,3.4,6.1c0,0.2,0,0.4,0,0.6c-0.4,4.7-4.9,8.8-10.1,9.8
		C42.1,74.9,41.3,75,40.5,75z M59.1,74.8c-2.5-0.5-4.9-1.7-6.8-3.4c0.9-1.1,1.6-2.3,2.1-3.6c1.2,1.4,3.2,2.7,5.5,3.1
		c0.6,0.1,1.1,0.1,1.6,0.1H100l0,4H61.5C60.7,75,59.9,74.9,59.1,74.8z M59,62c0-5.2-0.6-8.8-2-11.6c-0.5-1.1-1.2-2.1-2-3v-5.3
		c2.5,1.8,4.3,3.9,5.6,6.5c0.7,1.3,1.2,2.8,1.5,4.3l0.2,1.1l0.3-1.3c0.2-0.9,0.3-1.9,0.3-2.8c0-3.8-2-7-4.8-10.5
		c-1.5-1.8-3.1-3.5-4.7-5.4L53,33.4v25.3c-0.7-0.8-1.5-1.5-2.4-2.1c-0.5-0.3-1-0.6-1.6-0.8V27c0-2.1,2.8-2.8,3.8-0.9
		C57.2,34.2,67,39.9,67,50c0,4.8-2.2,9.5-4.3,13C61.7,64.8,59,64,59,62z"/>
</g>
</svg>
